<?xml version="1.0" encoding="UTF-8" standalone="no"?>
<!DOCTYPE svg PUBLIC "-//W3C//DTD SVG 1.1//EN"
 "http://www.w3.org/Graphics/SVG/1.1/DTD/svg11.dtd">
<!-- Generated by graphviz version 2.47.3 (20210619.1520)
 -->
<!-- Title: dependencies Pages: 1 -->
<svg width="632pt" height="247pt"
 viewBox="0.00 0.00 632.00 246.80" xmlns="http://www.w3.org/2000/svg" xmlns:xlink="http://www.w3.org/1999/xlink">
<g id="graph0" class="graph" transform="scale(1 1) rotate(0) translate(4 242.8)">
<title>dependencies</title>
<polygon fill="white" stroke="transparent" points="-4,4 -4,-242.8 628,-242.8 628,4 -4,4"/>
<text text-anchor="middle" x="312" y="-8.2" font-family="sans-serif" font-size="14.00">dependencies</text>
<g id="clust1" class="cluster">
<title>cluster_StatusModule</title>
<polygon fill="none" stroke="black" stroke-dasharray="1,5" points="8,-32.8 8,-230.8 616,-230.8 616,-32.8 8,-32.8"/>
</g>
<g id="clust2" class="cluster">
<title>cluster_StatusModule_declarations</title>
<polygon fill="none" stroke="black" points="290,-40.8 290,-92.8 608,-92.8 608,-40.8 290,-40.8"/>
</g>
<g id="clust5" class="cluster">
<title>cluster_StatusModule_imports</title>
<polygon fill="none" stroke="black" points="168,-40.8 168,-92.8 282,-92.8 282,-40.8 168,-40.8"/>
</g>
<g id="clust8" class="cluster">
<title>cluster_StatusModule_providers</title>
<polygon fill="none" stroke="black" points="16,-40.8 16,-92.8 160,-92.8 160,-40.8 16,-40.8"/>
</g>
<g id="clust6" class="cluster">
<title>cluster_StatusModule_exports</title>
<polygon fill="none" stroke="black" points="134,-170.8 134,-222.8 458,-222.8 458,-170.8 134,-170.8"/>
</g>
<!-- StatusFormComponent -->
<g id="node1" class="node">
<title>StatusFormComponent</title>
<polygon fill="#ffffb3" stroke="black" points="599.89,-84.8 454.11,-84.8 454.11,-48.8 599.89,-48.8 599.89,-84.8"/>
<text text-anchor="middle" x="527" y="-62.6" font-family="Times,serif" font-size="14.00">StatusFormComponent</text>
</g>
<!-- StatusModule -->
<g id="node3" class="node">
<title>StatusModule</title>
<polygon fill="#8dd3c7" stroke="black" points="339.77,-149.8 336.77,-153.8 315.77,-153.8 312.77,-149.8 246.23,-149.8 246.23,-113.8 339.77,-113.8 339.77,-149.8"/>
<text text-anchor="middle" x="293" y="-127.6" font-family="Times,serif" font-size="14.00">StatusModule</text>
</g>
<!-- StatusFormComponent&#45;&gt;StatusModule -->
<g id="edge1" class="edge">
<title>StatusFormComponent&#45;&gt;StatusModule</title>
<path fill="none" stroke="black" d="M527,-84.91C527,-104.14 527,-131.8 527,-131.8 527,-131.8 349.79,-131.8 349.79,-131.8"/>
<polygon fill="black" stroke="black" points="349.79,-128.3 339.79,-131.8 349.79,-135.3 349.79,-128.3"/>
</g>
<!-- StatusListComponent -->
<g id="node2" class="node">
<title>StatusListComponent</title>
<polygon fill="#ffffb3" stroke="black" points="435.83,-84.8 298.17,-84.8 298.17,-48.8 435.83,-48.8 435.83,-84.8"/>
<text text-anchor="middle" x="367" y="-62.6" font-family="Times,serif" font-size="14.00">StatusListComponent</text>
</g>
<!-- StatusListComponent&#45;&gt;StatusModule -->
<g id="edge2" class="edge">
<title>StatusListComponent&#45;&gt;StatusModule</title>
<path fill="none" stroke="black" d="M319.11,-84.91C319.11,-84.91 319.11,-103.79 319.11,-103.79"/>
<polygon fill="black" stroke="black" points="315.61,-103.79 319.11,-113.79 322.61,-103.79 315.61,-103.79"/>
</g>
<!-- StatusFormComponent  -->
<g id="node5" class="node">
<title>StatusFormComponent </title>
<polygon fill="#fb8072" stroke="black" points="449.89,-214.8 300.11,-214.8 300.11,-178.8 449.89,-178.8 449.89,-214.8"/>
<text text-anchor="middle" x="375" y="-192.6" font-family="Times,serif" font-size="14.00">StatusFormComponent </text>
</g>
<!-- StatusModule&#45;&gt;StatusFormComponent  -->
<g id="edge4" class="edge">
<title>StatusModule&#45;&gt;StatusFormComponent </title>
<path fill="none" stroke="black" stroke-dasharray="5,2" d="M320.1,-149.91C320.1,-149.91 320.1,-168.79 320.1,-168.79"/>
<polygon fill="black" stroke="black" points="316.6,-168.79 320.1,-178.79 323.6,-168.79 316.6,-168.79"/>
</g>
<!-- StatusListComponent  -->
<g id="node6" class="node">
<title>StatusListComponent </title>
<polygon fill="#fb8072" stroke="black" points="282.33,-214.8 141.67,-214.8 141.67,-178.8 282.33,-178.8 282.33,-214.8"/>
<text text-anchor="middle" x="212" y="-192.6" font-family="Times,serif" font-size="14.00">StatusListComponent </text>
</g>
<!-- StatusModule&#45;&gt;StatusListComponent  -->
<g id="edge5" class="edge">
<title>StatusModule&#45;&gt;StatusListComponent </title>
<path fill="none" stroke="black" stroke-dasharray="5,2" d="M264.27,-149.91C264.27,-149.91 264.27,-168.79 264.27,-168.79"/>
<polygon fill="black" stroke="black" points="260.77,-168.79 264.27,-178.79 267.77,-168.79 260.77,-168.79"/>
</g>
<!-- SharedModule -->
<g id="node4" class="node">
<title>SharedModule</title>
<polygon fill="#8dd3c7" stroke="black" points="274.42,-84.8 271.42,-88.8 250.42,-88.8 247.42,-84.8 175.58,-84.8 175.58,-48.8 274.42,-48.8 274.42,-84.8"/>
<text text-anchor="middle" x="225" y="-62.6" font-family="Times,serif" font-size="14.00">SharedModule</text>
</g>
<!-- SharedModule&#45;&gt;StatusModule -->
<g id="edge3" class="edge">
<title>SharedModule&#45;&gt;StatusModule</title>
<path fill="none" stroke="black" d="M260.16,-84.91C260.16,-84.91 260.16,-103.79 260.16,-103.79"/>
<polygon fill="black" stroke="black" points="256.66,-103.79 260.16,-113.79 263.66,-103.79 256.66,-103.79"/>
</g>
<!-- StatusService -->
<g id="node7" class="node">
<title>StatusService</title>
<ellipse fill="#fdb462" stroke="black" cx="88" cy="-66.8" rx="63.7" ry="18"/>
<text text-anchor="middle" x="88" y="-62.6" font-family="Times,serif" font-size="14.00">StatusService</text>
</g>
<!-- StatusService&#45;&gt;StatusModule -->
<g id="edge6" class="edge">
<title>StatusService&#45;&gt;StatusModule</title>
<path fill="none" stroke="black" d="M146.59,-74C146.59,-90.93 146.59,-131.8 146.59,-131.8 146.59,-131.8 235.87,-131.8 235.87,-131.8"/>
<polygon fill="black" stroke="black" points="235.87,-135.3 245.87,-131.8 235.87,-128.3 235.87,-135.3"/>
</g>
</g>
</svg>
