<?xml version="1.0" encoding="UTF-8" standalone="no"?>
<!DOCTYPE svg PUBLIC "-//W3C//DTD SVG 1.1//EN"
 "http://www.w3.org/Graphics/SVG/1.1/DTD/svg11.dtd">
<!-- Generated by graphviz version 2.47.3 (20210619.1520)
 -->
<!-- Title: dependencies Pages: 1 -->
<svg width="687pt" height="247pt"
 viewBox="0.00 0.00 687.00 246.80" xmlns="http://www.w3.org/2000/svg" xmlns:xlink="http://www.w3.org/1999/xlink">
<g id="graph0" class="graph" transform="scale(1 1) rotate(0) translate(4 242.8)">
<title>dependencies</title>
<polygon fill="white" stroke="transparent" points="-4,4 -4,-242.8 683,-242.8 683,4 -4,4"/>
<text text-anchor="middle" x="339.5" y="-8.2" font-family="sans-serif" font-size="14.00">dependencies</text>
<g id="clust1" class="cluster">
<title>cluster_CategoryModule</title>
<polygon fill="none" stroke="black" stroke-dasharray="1,5" points="8,-32.8 8,-230.8 671,-230.8 671,-32.8 8,-32.8"/>
</g>
<g id="clust5" class="cluster">
<title>cluster_CategoryModule_imports</title>
<polygon fill="none" stroke="black" points="549,-40.8 549,-92.8 663,-92.8 663,-40.8 549,-40.8"/>
</g>
<g id="clust2" class="cluster">
<title>cluster_CategoryModule_declarations</title>
<polygon fill="none" stroke="black" points="190,-40.8 190,-92.8 541,-92.8 541,-40.8 190,-40.8"/>
</g>
<g id="clust8" class="cluster">
<title>cluster_CategoryModule_providers</title>
<polygon fill="none" stroke="black" points="16,-40.8 16,-92.8 182,-92.8 182,-40.8 16,-40.8"/>
</g>
<g id="clust6" class="cluster">
<title>cluster_CategoryModule_exports</title>
<polygon fill="none" stroke="black" points="156,-170.8 156,-222.8 514,-222.8 514,-170.8 156,-170.8"/>
</g>
<!-- CategoryFormComponent -->
<g id="node1" class="node">
<title>CategoryFormComponent</title>
<polygon fill="#ffffb3" stroke="black" points="533.48,-84.8 370.52,-84.8 370.52,-48.8 533.48,-48.8 533.48,-84.8"/>
<text text-anchor="middle" x="452" y="-62.6" font-family="Times,serif" font-size="14.00">CategoryFormComponent</text>
</g>
<!-- CategoryModule -->
<g id="node3" class="node">
<title>CategoryModule</title>
<polygon fill="#8dd3c7" stroke="black" points="388.37,-149.8 385.37,-153.8 364.37,-153.8 361.37,-149.8 277.63,-149.8 277.63,-113.8 388.37,-113.8 388.37,-149.8"/>
<text text-anchor="middle" x="333" y="-127.6" font-family="Times,serif" font-size="14.00">CategoryModule</text>
</g>
<!-- CategoryFormComponent&#45;&gt;CategoryModule -->
<g id="edge1" class="edge">
<title>CategoryFormComponent&#45;&gt;CategoryModule</title>
<path fill="none" stroke="black" d="M379.47,-84.91C379.47,-84.91 379.47,-103.79 379.47,-103.79"/>
<polygon fill="black" stroke="black" points="375.97,-103.79 379.47,-113.79 382.97,-103.79 375.97,-103.79"/>
</g>
<!-- CategoryListComponent -->
<g id="node2" class="node">
<title>CategoryListComponent</title>
<polygon fill="#ffffb3" stroke="black" points="352.43,-84.8 197.57,-84.8 197.57,-48.8 352.43,-48.8 352.43,-84.8"/>
<text text-anchor="middle" x="275" y="-62.6" font-family="Times,serif" font-size="14.00">CategoryListComponent</text>
</g>
<!-- CategoryListComponent&#45;&gt;CategoryModule -->
<g id="edge2" class="edge">
<title>CategoryListComponent&#45;&gt;CategoryModule</title>
<path fill="none" stroke="black" d="M314.89,-84.91C314.89,-84.91 314.89,-103.79 314.89,-103.79"/>
<polygon fill="black" stroke="black" points="311.39,-103.79 314.89,-113.79 318.39,-103.79 311.39,-103.79"/>
</g>
<!-- CategoryFormComponent  -->
<g id="node5" class="node">
<title>CategoryFormComponent </title>
<polygon fill="#fb8072" stroke="black" points="506.48,-214.8 339.52,-214.8 339.52,-178.8 506.48,-178.8 506.48,-214.8"/>
<text text-anchor="middle" x="423" y="-192.6" font-family="Times,serif" font-size="14.00">CategoryFormComponent </text>
</g>
<!-- CategoryModule&#45;&gt;CategoryFormComponent  -->
<g id="edge4" class="edge">
<title>CategoryModule&#45;&gt;CategoryFormComponent </title>
<path fill="none" stroke="black" stroke-dasharray="5,2" d="M364.1,-149.91C364.1,-149.91 364.1,-168.79 364.1,-168.79"/>
<polygon fill="black" stroke="black" points="360.6,-168.79 364.1,-178.79 367.6,-168.79 360.6,-168.79"/>
</g>
<!-- CategoryListComponent  -->
<g id="node6" class="node">
<title>CategoryListComponent </title>
<polygon fill="#fb8072" stroke="black" points="321.93,-214.8 164.07,-214.8 164.07,-178.8 321.93,-178.8 321.93,-214.8"/>
<text text-anchor="middle" x="243" y="-192.6" font-family="Times,serif" font-size="14.00">CategoryListComponent </text>
</g>
<!-- CategoryModule&#45;&gt;CategoryListComponent  -->
<g id="edge5" class="edge">
<title>CategoryModule&#45;&gt;CategoryListComponent </title>
<path fill="none" stroke="black" stroke-dasharray="5,2" d="M299.77,-149.91C299.77,-149.91 299.77,-168.79 299.77,-168.79"/>
<polygon fill="black" stroke="black" points="296.27,-168.79 299.77,-178.79 303.27,-168.79 296.27,-168.79"/>
</g>
<!-- SharedModule -->
<g id="node4" class="node">
<title>SharedModule</title>
<polygon fill="#8dd3c7" stroke="black" points="655.42,-84.8 652.42,-88.8 631.42,-88.8 628.42,-84.8 556.58,-84.8 556.58,-48.8 655.42,-48.8 655.42,-84.8"/>
<text text-anchor="middle" x="606" y="-62.6" font-family="Times,serif" font-size="14.00">SharedModule</text>
</g>
<!-- SharedModule&#45;&gt;CategoryModule -->
<g id="edge3" class="edge">
<title>SharedModule&#45;&gt;CategoryModule</title>
<path fill="none" stroke="black" d="M606,-84.91C606,-104.14 606,-131.8 606,-131.8 606,-131.8 398.57,-131.8 398.57,-131.8"/>
<polygon fill="black" stroke="black" points="398.57,-128.3 388.57,-131.8 398.57,-135.3 398.57,-128.3"/>
</g>
<!-- CategoryService -->
<g id="node7" class="node">
<title>CategoryService</title>
<ellipse fill="#fdb462" stroke="black" cx="99" cy="-66.8" rx="75.28" ry="18"/>
<text text-anchor="middle" x="99" y="-62.6" font-family="Times,serif" font-size="14.00">CategoryService</text>
</g>
<!-- CategoryService&#45;&gt;CategoryModule -->
<g id="edge6" class="edge">
<title>CategoryService&#45;&gt;CategoryModule</title>
<path fill="none" stroke="black" d="M169.21,-73.76C169.21,-90.52 169.21,-131.8 169.21,-131.8 169.21,-131.8 267.55,-131.8 267.55,-131.8"/>
<polygon fill="black" stroke="black" points="267.55,-135.3 277.55,-131.8 267.55,-128.3 267.55,-135.3"/>
</g>
</g>
</svg>
