<?xml version="1.0" encoding="UTF-8" standalone="no"?>
<!DOCTYPE svg PUBLIC "-//W3C//DTD SVG 1.1//EN"
 "http://www.w3.org/Graphics/SVG/1.1/DTD/svg11.dtd">
<!-- Generated by graphviz version 2.47.3 (20210619.1520)
 -->
<!-- Title: dependencies Pages: 1 -->
<svg width="687pt" height="247pt"
 viewBox="0.00 0.00 687.00 246.80" xmlns="http://www.w3.org/2000/svg" xmlns:xlink="http://www.w3.org/1999/xlink">
<g id="graph0" class="graph" transform="scale(1 1) rotate(0) translate(4 242.8)">
<title>dependencies</title>
<polygon fill="white" stroke="transparent" points="-4,4 -4,-242.8 683,-242.8 683,4 -4,4"/>
<text text-anchor="middle" x="339.5" y="-8.2" font-family="sans-serif" font-size="14.00">dependencies</text>
<g id="clust1" class="cluster">
<title>cluster_CategoryModule</title>
<polygon fill="none" stroke="black" stroke-dasharray="1,5" points="8,-32.8 8,-230.8 671,-230.8 671,-32.8 8,-32.8"/>
</g>
<g id="clust2" class="cluster">
<title>cluster_CategoryModule_declarations</title>
<polygon fill="none" stroke="black" points="312,-40.8 312,-92.8 663,-92.8 663,-40.8 312,-40.8"/>
</g>
<g id="clust8" class="cluster">
<title>cluster_CategoryModule_providers</title>
<polygon fill="none" stroke="black" points="138,-40.8 138,-92.8 304,-92.8 304,-40.8 138,-40.8"/>
</g>
<g id="clust5" class="cluster">
<title>cluster_CategoryModule_imports</title>
<polygon fill="none" stroke="black" points="16,-40.8 16,-92.8 130,-92.8 130,-40.8 16,-40.8"/>
</g>
<g id="clust6" class="cluster">
<title>cluster_CategoryModule_exports</title>
<polygon fill="none" stroke="black" points="129,-170.8 129,-222.8 487,-222.8 487,-170.8 129,-170.8"/>
</g>
<!-- CategoryFormComponent -->
<g id="node1" class="node">
<title>CategoryFormComponent</title>
<polygon fill="#ffffb3" stroke="black" points="655.48,-84.8 492.52,-84.8 492.52,-48.8 655.48,-48.8 655.48,-84.8"/>
<text text-anchor="middle" x="574" y="-62.6" font-family="Times,serif" font-size="14.00">CategoryFormComponent</text>
</g>
<!-- CategoryModule -->
<g id="node3" class="node">
<title>CategoryModule</title>
<polygon fill="#8dd3c7" stroke="black" points="361.37,-149.8 358.37,-153.8 337.37,-153.8 334.37,-149.8 250.63,-149.8 250.63,-113.8 361.37,-113.8 361.37,-149.8"/>
<text text-anchor="middle" x="306" y="-127.6" font-family="Times,serif" font-size="14.00">CategoryModule</text>
</g>
<!-- CategoryFormComponent&#45;&gt;CategoryModule -->
<g id="edge1" class="edge">
<title>CategoryFormComponent&#45;&gt;CategoryModule</title>
<path fill="none" stroke="black" d="M574,-84.91C574,-104.14 574,-131.8 574,-131.8 574,-131.8 371.53,-131.8 371.53,-131.8"/>
<polygon fill="black" stroke="black" points="371.53,-128.3 361.53,-131.8 371.53,-135.3 371.53,-128.3"/>
</g>
<!-- CategoryListComponent -->
<g id="node2" class="node">
<title>CategoryListComponent</title>
<polygon fill="#ffffb3" stroke="black" points="474.43,-84.8 319.57,-84.8 319.57,-48.8 474.43,-48.8 474.43,-84.8"/>
<text text-anchor="middle" x="397" y="-62.6" font-family="Times,serif" font-size="14.00">CategoryListComponent</text>
</g>
<!-- CategoryListComponent&#45;&gt;CategoryModule -->
<g id="edge2" class="edge">
<title>CategoryListComponent&#45;&gt;CategoryModule</title>
<path fill="none" stroke="black" d="M340.61,-84.91C340.61,-84.91 340.61,-103.79 340.61,-103.79"/>
<polygon fill="black" stroke="black" points="337.11,-103.79 340.61,-113.79 344.11,-103.79 337.11,-103.79"/>
</g>
<!-- CategoryFormComponent  -->
<g id="node5" class="node">
<title>CategoryFormComponent </title>
<polygon fill="#fb8072" stroke="black" points="479.48,-214.8 312.52,-214.8 312.52,-178.8 479.48,-178.8 479.48,-214.8"/>
<text text-anchor="middle" x="396" y="-192.6" font-family="Times,serif" font-size="14.00">CategoryFormComponent </text>
</g>
<!-- CategoryModule&#45;&gt;CategoryFormComponent  -->
<g id="edge4" class="edge">
<title>CategoryModule&#45;&gt;CategoryFormComponent </title>
<path fill="none" stroke="black" stroke-dasharray="5,2" d="M337.1,-149.91C337.1,-149.91 337.1,-168.79 337.1,-168.79"/>
<polygon fill="black" stroke="black" points="333.6,-168.79 337.1,-178.79 340.6,-168.79 333.6,-168.79"/>
</g>
<!-- CategoryListComponent  -->
<g id="node6" class="node">
<title>CategoryListComponent </title>
<polygon fill="#fb8072" stroke="black" points="294.93,-214.8 137.07,-214.8 137.07,-178.8 294.93,-178.8 294.93,-214.8"/>
<text text-anchor="middle" x="216" y="-192.6" font-family="Times,serif" font-size="14.00">CategoryListComponent </text>
</g>
<!-- CategoryModule&#45;&gt;CategoryListComponent  -->
<g id="edge5" class="edge">
<title>CategoryModule&#45;&gt;CategoryListComponent </title>
<path fill="none" stroke="black" stroke-dasharray="5,2" d="M272.77,-149.91C272.77,-149.91 272.77,-168.79 272.77,-168.79"/>
<polygon fill="black" stroke="black" points="269.27,-168.79 272.77,-178.79 276.27,-168.79 269.27,-168.79"/>
</g>
<!-- SharedModule -->
<g id="node4" class="node">
<title>SharedModule</title>
<polygon fill="#8dd3c7" stroke="black" points="122.42,-84.8 119.42,-88.8 98.42,-88.8 95.42,-84.8 23.58,-84.8 23.58,-48.8 122.42,-48.8 122.42,-84.8"/>
<text text-anchor="middle" x="73" y="-62.6" font-family="Times,serif" font-size="14.00">SharedModule</text>
</g>
<!-- SharedModule&#45;&gt;CategoryModule -->
<g id="edge3" class="edge">
<title>SharedModule&#45;&gt;CategoryModule</title>
<path fill="none" stroke="black" d="M73,-84.91C73,-104.14 73,-131.8 73,-131.8 73,-131.8 240.49,-131.8 240.49,-131.8"/>
<polygon fill="black" stroke="black" points="240.49,-135.3 250.49,-131.8 240.49,-128.3 240.49,-135.3"/>
</g>
<!-- CategoryService -->
<g id="node7" class="node">
<title>CategoryService</title>
<ellipse fill="#fdb462" stroke="black" cx="221" cy="-66.8" rx="75.28" ry="18"/>
<text text-anchor="middle" x="221" y="-62.6" font-family="Times,serif" font-size="14.00">CategoryService</text>
</g>
<!-- CategoryService&#45;&gt;CategoryModule -->
<g id="edge6" class="edge">
<title>CategoryService&#45;&gt;CategoryModule</title>
<path fill="none" stroke="black" d="M273.48,-79.95C273.48,-79.95 273.48,-103.49 273.48,-103.49"/>
<polygon fill="black" stroke="black" points="269.98,-103.49 273.48,-113.49 276.98,-103.49 269.98,-103.49"/>
</g>
</g>
</svg>
