<?xml version="1.0" encoding="UTF-8" standalone="no"?>
<!DOCTYPE svg PUBLIC "-//W3C//DTD SVG 1.1//EN"
 "http://www.w3.org/Graphics/SVG/1.1/DTD/svg11.dtd">
<!-- Generated by graphviz version 2.47.3 (20210619.1520)
 -->
<!-- Title: dependencies Pages: 1 -->
<svg width="628pt" height="247pt"
 viewBox="0.00 0.00 628.00 246.80" xmlns="http://www.w3.org/2000/svg" xmlns:xlink="http://www.w3.org/1999/xlink">
<g id="graph0" class="graph" transform="scale(1 1) rotate(0) translate(4 242.8)">
<title>dependencies</title>
<polygon fill="white" stroke="transparent" points="-4,4 -4,-242.8 624,-242.8 624,4 -4,4"/>
<text text-anchor="middle" x="310" y="-8.2" font-family="sans-serif" font-size="14.00">dependencies</text>
<g id="clust1" class="cluster">
<title>cluster_ArticleModule</title>
<polygon fill="none" stroke="black" stroke-dasharray="1,5" points="8,-32.8 8,-230.8 612,-230.8 612,-32.8 8,-32.8"/>
</g>
<g id="clust5" class="cluster">
<title>cluster_ArticleModule_imports</title>
<polygon fill="none" stroke="black" points="490,-40.8 490,-92.8 604,-92.8 604,-40.8 490,-40.8"/>
</g>
<g id="clust6" class="cluster">
<title>cluster_ArticleModule_exports</title>
<polygon fill="none" stroke="black" points="149,-170.8 149,-222.8 465,-222.8 465,-170.8 149,-170.8"/>
</g>
<g id="clust8" class="cluster">
<title>cluster_ArticleModule_providers</title>
<polygon fill="none" stroke="black" points="332,-40.8 332,-92.8 482,-92.8 482,-40.8 332,-40.8"/>
</g>
<g id="clust2" class="cluster">
<title>cluster_ArticleModule_declarations</title>
<polygon fill="none" stroke="black" points="16,-40.8 16,-92.8 324,-92.8 324,-40.8 16,-40.8"/>
</g>
<!-- ArticleComponent -->
<g id="node1" class="node">
<title>ArticleComponent</title>
<polygon fill="#ffffb3" stroke="black" points="316.2,-84.8 195.8,-84.8 195.8,-48.8 316.2,-48.8 316.2,-84.8"/>
<text text-anchor="middle" x="256" y="-62.6" font-family="Times,serif" font-size="14.00">ArticleComponent</text>
</g>
<!-- ArticleModule -->
<g id="node3" class="node">
<title>ArticleModule</title>
<polygon fill="#8dd3c7" stroke="black" points="364.42,-149.8 361.42,-153.8 340.42,-153.8 337.42,-149.8 265.58,-149.8 265.58,-113.8 364.42,-113.8 364.42,-149.8"/>
<text text-anchor="middle" x="315" y="-127.6" font-family="Times,serif" font-size="14.00">ArticleModule</text>
</g>
<!-- ArticleComponent&#45;&gt;ArticleModule -->
<g id="edge1" class="edge">
<title>ArticleComponent&#45;&gt;ArticleModule</title>
<path fill="none" stroke="black" d="M290.95,-84.91C290.95,-84.91 290.95,-103.79 290.95,-103.79"/>
<polygon fill="black" stroke="black" points="287.45,-103.79 290.95,-113.79 294.45,-103.79 287.45,-103.79"/>
</g>
<!-- ArticleDetailComponent -->
<g id="node2" class="node">
<title>ArticleDetailComponent</title>
<polygon fill="#ffffb3" stroke="black" points="178.41,-84.8 23.59,-84.8 23.59,-48.8 178.41,-48.8 178.41,-84.8"/>
<text text-anchor="middle" x="101" y="-62.6" font-family="Times,serif" font-size="14.00">ArticleDetailComponent</text>
</g>
<!-- ArticleDetailComponent&#45;&gt;ArticleModule -->
<g id="edge2" class="edge">
<title>ArticleDetailComponent&#45;&gt;ArticleModule</title>
<path fill="none" stroke="black" d="M167.62,-84.91C167.62,-104.14 167.62,-131.8 167.62,-131.8 167.62,-131.8 255.52,-131.8 255.52,-131.8"/>
<polygon fill="black" stroke="black" points="255.52,-135.3 265.52,-131.8 255.52,-128.3 255.52,-135.3"/>
</g>
<!-- ArticleComponent  -->
<g id="node5" class="node">
<title>ArticleComponent </title>
<polygon fill="#fb8072" stroke="black" points="456.7,-214.8 333.3,-214.8 333.3,-178.8 456.7,-178.8 456.7,-214.8"/>
<text text-anchor="middle" x="395" y="-192.6" font-family="Times,serif" font-size="14.00">ArticleComponent </text>
</g>
<!-- ArticleModule&#45;&gt;ArticleComponent  -->
<g id="edge4" class="edge">
<title>ArticleModule&#45;&gt;ArticleComponent </title>
<path fill="none" stroke="black" stroke-dasharray="5,2" d="M348.68,-149.91C348.68,-149.91 348.68,-168.79 348.68,-168.79"/>
<polygon fill="black" stroke="black" points="345.18,-168.79 348.68,-178.79 352.18,-168.79 345.18,-168.79"/>
</g>
<!-- ArticleDetailComponent  -->
<g id="node6" class="node">
<title>ArticleDetailComponent </title>
<polygon fill="#fb8072" stroke="black" points="314.91,-214.8 157.09,-214.8 157.09,-178.8 314.91,-178.8 314.91,-214.8"/>
<text text-anchor="middle" x="236" y="-192.6" font-family="Times,serif" font-size="14.00">ArticleDetailComponent </text>
</g>
<!-- ArticleModule&#45;&gt;ArticleDetailComponent  -->
<g id="edge5" class="edge">
<title>ArticleModule&#45;&gt;ArticleDetailComponent </title>
<path fill="none" stroke="black" stroke-dasharray="5,2" d="M290.37,-149.91C290.37,-149.91 290.37,-168.79 290.37,-168.79"/>
<polygon fill="black" stroke="black" points="286.87,-168.79 290.37,-178.79 293.87,-168.79 286.87,-168.79"/>
</g>
<!-- SharedModule -->
<g id="node4" class="node">
<title>SharedModule</title>
<polygon fill="#8dd3c7" stroke="black" points="596.42,-84.8 593.42,-88.8 572.42,-88.8 569.42,-84.8 497.58,-84.8 497.58,-48.8 596.42,-48.8 596.42,-84.8"/>
<text text-anchor="middle" x="547" y="-62.6" font-family="Times,serif" font-size="14.00">SharedModule</text>
</g>
<!-- SharedModule&#45;&gt;ArticleModule -->
<g id="edge3" class="edge">
<title>SharedModule&#45;&gt;ArticleModule</title>
<path fill="none" stroke="black" d="M547,-84.91C547,-104.14 547,-131.8 547,-131.8 547,-131.8 374.49,-131.8 374.49,-131.8"/>
<polygon fill="black" stroke="black" points="374.49,-128.3 364.49,-131.8 374.49,-135.3 374.49,-128.3"/>
</g>
<!-- ArticleService -->
<g id="node7" class="node">
<title>ArticleService</title>
<ellipse fill="#fdb462" stroke="black" cx="407" cy="-66.8" rx="66.61" ry="18"/>
<text text-anchor="middle" x="407" y="-62.6" font-family="Times,serif" font-size="14.00">ArticleService</text>
</g>
<!-- ArticleService&#45;&gt;ArticleModule -->
<g id="edge6" class="edge">
<title>ArticleService&#45;&gt;ArticleModule</title>
<path fill="none" stroke="black" d="M352.2,-77.24C352.2,-77.24 352.2,-103.77 352.2,-103.77"/>
<polygon fill="black" stroke="black" points="348.7,-103.77 352.2,-113.77 355.7,-103.77 348.7,-103.77"/>
</g>
</g>
</svg>
