<?xml version="1.0" encoding="UTF-8" standalone="no"?>
<!DOCTYPE svg PUBLIC "-//W3C//DTD SVG 1.1//EN"
 "http://www.w3.org/Graphics/SVG/1.1/DTD/svg11.dtd">
<!-- Generated by graphviz version 2.47.3 (20210619.1520)
 -->
<!-- Title: dependencies Pages: 1 -->
<svg width="628pt" height="247pt"
 viewBox="0.00 0.00 628.00 246.80" xmlns="http://www.w3.org/2000/svg" xmlns:xlink="http://www.w3.org/1999/xlink">
<g id="graph0" class="graph" transform="scale(1 1) rotate(0) translate(4 242.8)">
<title>dependencies</title>
<polygon fill="white" stroke="transparent" points="-4,4 -4,-242.8 624,-242.8 624,4 -4,4"/>
<text text-anchor="middle" x="310" y="-8.2" font-family="sans-serif" font-size="14.00">dependencies</text>
<g id="clust1" class="cluster">
<title>cluster_ArticleModule</title>
<polygon fill="none" stroke="black" stroke-dasharray="1,5" points="8,-32.8 8,-230.8 612,-230.8 612,-32.8 8,-32.8"/>
</g>
<g id="clust2" class="cluster">
<title>cluster_ArticleModule_declarations</title>
<polygon fill="none" stroke="black" points="296,-40.8 296,-92.8 604,-92.8 604,-40.8 296,-40.8"/>
</g>
<g id="clust6" class="cluster">
<title>cluster_ArticleModule_exports</title>
<polygon fill="none" stroke="black" points="137,-170.8 137,-222.8 453,-222.8 453,-170.8 137,-170.8"/>
</g>
<g id="clust5" class="cluster">
<title>cluster_ArticleModule_imports</title>
<polygon fill="none" stroke="black" points="174,-40.8 174,-92.8 288,-92.8 288,-40.8 174,-40.8"/>
</g>
<g id="clust8" class="cluster">
<title>cluster_ArticleModule_providers</title>
<polygon fill="none" stroke="black" points="16,-40.8 16,-92.8 166,-92.8 166,-40.8 16,-40.8"/>
</g>
<!-- ArticleComponent -->
<g id="node1" class="node">
<title>ArticleComponent</title>
<polygon fill="#ffffb3" stroke="black" points="596.2,-84.8 475.8,-84.8 475.8,-48.8 596.2,-48.8 596.2,-84.8"/>
<text text-anchor="middle" x="536" y="-62.6" font-family="Times,serif" font-size="14.00">ArticleComponent</text>
</g>
<!-- ArticleModule -->
<g id="node3" class="node">
<title>ArticleModule</title>
<polygon fill="#8dd3c7" stroke="black" points="352.42,-149.8 349.42,-153.8 328.42,-153.8 325.42,-149.8 253.58,-149.8 253.58,-113.8 352.42,-113.8 352.42,-149.8"/>
<text text-anchor="middle" x="303" y="-127.6" font-family="Times,serif" font-size="14.00">ArticleModule</text>
</g>
<!-- ArticleComponent&#45;&gt;ArticleModule -->
<g id="edge1" class="edge">
<title>ArticleComponent&#45;&gt;ArticleModule</title>
<path fill="none" stroke="black" d="M536,-84.91C536,-104.14 536,-131.8 536,-131.8 536,-131.8 362.41,-131.8 362.41,-131.8"/>
<polygon fill="black" stroke="black" points="362.41,-128.3 352.41,-131.8 362.41,-135.3 362.41,-128.3"/>
</g>
<!-- ArticleDetailComponent -->
<g id="node2" class="node">
<title>ArticleDetailComponent</title>
<polygon fill="#ffffb3" stroke="black" points="458.41,-84.8 303.59,-84.8 303.59,-48.8 458.41,-48.8 458.41,-84.8"/>
<text text-anchor="middle" x="381" y="-62.6" font-family="Times,serif" font-size="14.00">ArticleDetailComponent</text>
</g>
<!-- ArticleDetailComponent&#45;&gt;ArticleModule -->
<g id="edge2" class="edge">
<title>ArticleDetailComponent&#45;&gt;ArticleModule</title>
<path fill="none" stroke="black" d="M328,-84.91C328,-84.91 328,-103.79 328,-103.79"/>
<polygon fill="black" stroke="black" points="324.5,-103.79 328,-113.79 331.5,-103.79 324.5,-103.79"/>
</g>
<!-- ArticleComponent  -->
<g id="node5" class="node">
<title>ArticleComponent </title>
<polygon fill="#fb8072" stroke="black" points="444.7,-214.8 321.3,-214.8 321.3,-178.8 444.7,-178.8 444.7,-214.8"/>
<text text-anchor="middle" x="383" y="-192.6" font-family="Times,serif" font-size="14.00">ArticleComponent </text>
</g>
<!-- ArticleModule&#45;&gt;ArticleComponent  -->
<g id="edge4" class="edge">
<title>ArticleModule&#45;&gt;ArticleComponent </title>
<path fill="none" stroke="black" stroke-dasharray="5,2" d="M336.68,-149.91C336.68,-149.91 336.68,-168.79 336.68,-168.79"/>
<polygon fill="black" stroke="black" points="333.18,-168.79 336.68,-178.79 340.18,-168.79 333.18,-168.79"/>
</g>
<!-- ArticleDetailComponent  -->
<g id="node6" class="node">
<title>ArticleDetailComponent </title>
<polygon fill="#fb8072" stroke="black" points="302.91,-214.8 145.09,-214.8 145.09,-178.8 302.91,-178.8 302.91,-214.8"/>
<text text-anchor="middle" x="224" y="-192.6" font-family="Times,serif" font-size="14.00">ArticleDetailComponent </text>
</g>
<!-- ArticleModule&#45;&gt;ArticleDetailComponent  -->
<g id="edge5" class="edge">
<title>ArticleModule&#45;&gt;ArticleDetailComponent </title>
<path fill="none" stroke="black" stroke-dasharray="5,2" d="M278.37,-149.91C278.37,-149.91 278.37,-168.79 278.37,-168.79"/>
<polygon fill="black" stroke="black" points="274.87,-168.79 278.37,-178.79 281.87,-168.79 274.87,-168.79"/>
</g>
<!-- SharedModule -->
<g id="node4" class="node">
<title>SharedModule</title>
<polygon fill="#8dd3c7" stroke="black" points="280.42,-84.8 277.42,-88.8 256.42,-88.8 253.42,-84.8 181.58,-84.8 181.58,-48.8 280.42,-48.8 280.42,-84.8"/>
<text text-anchor="middle" x="231" y="-62.6" font-family="Times,serif" font-size="14.00">SharedModule</text>
</g>
<!-- SharedModule&#45;&gt;ArticleModule -->
<g id="edge3" class="edge">
<title>SharedModule&#45;&gt;ArticleModule</title>
<path fill="none" stroke="black" d="M267,-84.91C267,-84.91 267,-103.79 267,-103.79"/>
<polygon fill="black" stroke="black" points="263.5,-103.79 267,-113.79 270.5,-103.79 263.5,-103.79"/>
</g>
<!-- ArticleService -->
<g id="node7" class="node">
<title>ArticleService</title>
<ellipse fill="#fdb462" stroke="black" cx="91" cy="-66.8" rx="66.61" ry="18"/>
<text text-anchor="middle" x="91" y="-62.6" font-family="Times,serif" font-size="14.00">ArticleService</text>
</g>
<!-- ArticleService&#45;&gt;ArticleModule -->
<g id="edge6" class="edge">
<title>ArticleService&#45;&gt;ArticleModule</title>
<path fill="none" stroke="black" d="M151.42,-74.51C151.42,-91.73 151.42,-131.8 151.42,-131.8 151.42,-131.8 243.79,-131.8 243.79,-131.8"/>
<polygon fill="black" stroke="black" points="243.79,-135.3 253.79,-131.8 243.79,-128.3 243.79,-135.3"/>
</g>
</g>
</svg>
