<?xml version="1.0" encoding="UTF-8" standalone="no"?>
<!DOCTYPE svg PUBLIC "-//W3C//DTD SVG 1.1//EN"
 "http://www.w3.org/Graphics/SVG/1.1/DTD/svg11.dtd">
<!-- Generated by graphviz version 2.47.3 (20210619.1520)
 -->
<!-- Title: dependencies Pages: 1 -->
<svg width="557pt" height="247pt"
 viewBox="0.00 0.00 557.00 246.80" xmlns="http://www.w3.org/2000/svg" xmlns:xlink="http://www.w3.org/1999/xlink">
<g id="graph0" class="graph" transform="scale(1 1) rotate(0) translate(4 242.8)">
<title>dependencies</title>
<polygon fill="white" stroke="transparent" points="-4,4 -4,-242.8 553,-242.8 553,4 -4,4"/>
<text text-anchor="middle" x="274.5" y="-8.2" font-family="sans-serif" font-size="14.00">dependencies</text>
<g id="clust1" class="cluster">
<title>cluster_AdminModule</title>
<polygon fill="none" stroke="black" stroke-dasharray="1,5" points="8,-32.8 8,-230.8 541,-230.8 541,-32.8 8,-32.8"/>
</g>
<g id="clust4" class="cluster">
<title>cluster_AdminModule_exports</title>
<polygon fill="none" stroke="black" points="127,-170.8 127,-222.8 373,-222.8 373,-170.8 127,-170.8"/>
</g>
<g id="clust3" class="cluster">
<title>cluster_AdminModule_imports</title>
<polygon fill="none" stroke="black" points="16,-40.8 16,-92.8 533,-92.8 533,-40.8 16,-40.8"/>
</g>
<!-- AdminRoutingModule -->
<g id="node1" class="node">
<title>AdminRoutingModule</title>
<polygon fill="#8dd3c7" stroke="black" points="524.56,-84.8 521.56,-88.8 500.56,-88.8 497.56,-84.8 381.44,-84.8 381.44,-48.8 524.56,-48.8 524.56,-84.8"/>
<text text-anchor="middle" x="453" y="-62.6" font-family="Times,serif" font-size="14.00">AdminRoutingModule</text>
</g>
<!-- AdminModule -->
<g id="node5" class="node">
<title>AdminModule</title>
<polygon fill="#8dd3c7" stroke="black" points="295.44,-149.8 292.44,-153.8 271.44,-153.8 268.44,-149.8 196.56,-149.8 196.56,-113.8 295.44,-113.8 295.44,-149.8"/>
<text text-anchor="middle" x="246" y="-127.6" font-family="Times,serif" font-size="14.00">AdminModule</text>
</g>
<!-- AdminRoutingModule&#45;&gt;AdminModule -->
<g id="edge1" class="edge">
<title>AdminRoutingModule&#45;&gt;AdminModule</title>
<path fill="none" stroke="black" d="M453,-84.91C453,-104.14 453,-131.8 453,-131.8 453,-131.8 305.32,-131.8 305.32,-131.8"/>
<polygon fill="black" stroke="black" points="305.32,-128.3 295.32,-131.8 305.32,-135.3 305.32,-128.3"/>
</g>
<!-- CategoryModule -->
<g id="node2" class="node">
<title>CategoryModule</title>
<polygon fill="#8dd3c7" stroke="black" points="363.37,-84.8 360.37,-88.8 339.37,-88.8 336.37,-84.8 252.63,-84.8 252.63,-48.8 363.37,-48.8 363.37,-84.8"/>
<text text-anchor="middle" x="308" y="-62.6" font-family="Times,serif" font-size="14.00">CategoryModule</text>
</g>
<!-- CategoryModule&#45;&gt;AdminModule -->
<g id="edge2" class="edge">
<title>CategoryModule&#45;&gt;AdminModule</title>
<path fill="none" stroke="black" d="M273.89,-84.91C273.89,-84.91 273.89,-103.79 273.89,-103.79"/>
<polygon fill="black" stroke="black" points="270.39,-103.79 273.89,-113.79 277.39,-103.79 270.39,-103.79"/>
</g>
<!-- SharedModule -->
<g id="node3" class="node">
<title>SharedModule</title>
<polygon fill="#8dd3c7" stroke="black" points="234.42,-84.8 231.42,-88.8 210.42,-88.8 207.42,-84.8 135.58,-84.8 135.58,-48.8 234.42,-48.8 234.42,-84.8"/>
<text text-anchor="middle" x="185" y="-62.6" font-family="Times,serif" font-size="14.00">SharedModule</text>
</g>
<!-- SharedModule&#45;&gt;AdminModule -->
<g id="edge3" class="edge">
<title>SharedModule&#45;&gt;AdminModule</title>
<path fill="none" stroke="black" d="M215.5,-84.91C215.5,-84.91 215.5,-103.79 215.5,-103.79"/>
<polygon fill="black" stroke="black" points="212,-103.79 215.5,-113.79 219,-103.79 212,-103.79"/>
</g>
<!-- StatusModule -->
<g id="node4" class="node">
<title>StatusModule</title>
<polygon fill="#8dd3c7" stroke="black" points="117.77,-84.8 114.77,-88.8 93.77,-88.8 90.77,-84.8 24.23,-84.8 24.23,-48.8 117.77,-48.8 117.77,-84.8"/>
<text text-anchor="middle" x="71" y="-62.6" font-family="Times,serif" font-size="14.00">StatusModule</text>
</g>
<!-- StatusModule&#45;&gt;AdminModule -->
<g id="edge4" class="edge">
<title>StatusModule&#45;&gt;AdminModule</title>
<path fill="none" stroke="black" d="M71,-84.91C71,-104.14 71,-131.8 71,-131.8 71,-131.8 186.32,-131.8 186.32,-131.8"/>
<polygon fill="black" stroke="black" points="186.32,-135.3 196.32,-131.8 186.32,-128.3 186.32,-135.3"/>
</g>
<!-- CategoryModule  -->
<g id="node6" class="node">
<title>CategoryModule </title>
<polygon fill="#fb8072" stroke="black" points="365.37,-214.8 250.63,-214.8 250.63,-178.8 365.37,-178.8 365.37,-214.8"/>
<text text-anchor="middle" x="308" y="-192.6" font-family="Times,serif" font-size="14.00">CategoryModule </text>
</g>
<!-- AdminModule&#45;&gt;CategoryModule  -->
<g id="edge5" class="edge">
<title>AdminModule&#45;&gt;CategoryModule </title>
<path fill="none" stroke="black" stroke-dasharray="5,2" d="M273.02,-149.91C273.02,-149.91 273.02,-168.79 273.02,-168.79"/>
<polygon fill="black" stroke="black" points="269.52,-168.79 273.02,-178.79 276.52,-168.79 269.52,-168.79"/>
</g>
<!-- StatusModule  -->
<g id="node7" class="node">
<title>StatusModule </title>
<polygon fill="#fb8072" stroke="black" points="232.77,-214.8 135.23,-214.8 135.23,-178.8 232.77,-178.8 232.77,-214.8"/>
<text text-anchor="middle" x="184" y="-192.6" font-family="Times,serif" font-size="14.00">StatusModule </text>
</g>
<!-- AdminModule&#45;&gt;StatusModule  -->
<g id="edge6" class="edge">
<title>AdminModule&#45;&gt;StatusModule </title>
<path fill="none" stroke="black" stroke-dasharray="5,2" d="M214.71,-149.91C214.71,-149.91 214.71,-168.79 214.71,-168.79"/>
<polygon fill="black" stroke="black" points="211.21,-168.79 214.71,-178.79 218.21,-168.79 211.21,-168.79"/>
</g>
</g>
</svg>
