<?xml version="1.0" encoding="UTF-8" standalone="no"?>
<!DOCTYPE svg PUBLIC "-//W3C//DTD SVG 1.1//EN"
 "http://www.w3.org/Graphics/SVG/1.1/DTD/svg11.dtd">
<!-- Generated by graphviz version 2.47.3 (20210619.1520)
 -->
<!-- Title: dependencies Pages: 1 -->
<svg width="812pt" height="247pt"
 viewBox="0.00 0.00 812.00 246.80" xmlns="http://www.w3.org/2000/svg" xmlns:xlink="http://www.w3.org/1999/xlink">
<g id="graph0" class="graph" transform="scale(1 1) rotate(0) translate(4 242.8)">
<title>dependencies</title>
<polygon fill="white" stroke="transparent" points="-4,4 -4,-242.8 808,-242.8 808,4 -4,4"/>
<text text-anchor="middle" x="402" y="-8.2" font-family="sans-serif" font-size="14.00">dependencies</text>
<g id="clust1" class="cluster">
<title>cluster_AppModule</title>
<polygon fill="none" stroke="black" stroke-dasharray="1,5" points="8,-32.8 8,-230.8 796,-230.8 796,-32.8 8,-32.8"/>
</g>
<g id="clust2" class="cluster">
<title>cluster_AppModule_declarations</title>
<polygon fill="none" stroke="black" points="401,-40.8 401,-92.8 788,-92.8 788,-40.8 401,-40.8"/>
</g>
<g id="clust6" class="cluster">
<title>cluster_AppModule_imports</title>
<polygon fill="none" stroke="black" points="16,-40.8 16,-92.8 393,-92.8 393,-40.8 16,-40.8"/>
</g>
<g id="clust8" class="cluster">
<title>cluster_AppModule_bootstrap</title>
<polygon fill="none" stroke="black" points="331,-170.8 331,-222.8 455,-222.8 455,-170.8 331,-170.8"/>
</g>
<!-- AppComponent -->
<g id="node1" class="node">
<title>AppComponent</title>
<polygon fill="#ffffb3" stroke="black" points="779.94,-84.8 674.06,-84.8 674.06,-48.8 779.94,-48.8 779.94,-84.8"/>
<text text-anchor="middle" x="727" y="-62.6" font-family="Times,serif" font-size="14.00">AppComponent</text>
</g>
<!-- AppModule -->
<g id="node4" class="node">
<title>AppModule</title>
<polygon fill="#8dd3c7" stroke="black" points="434.66,-149.8 431.66,-153.8 410.66,-153.8 407.66,-149.8 351.34,-149.8 351.34,-113.8 434.66,-113.8 434.66,-149.8"/>
<text text-anchor="middle" x="393" y="-127.6" font-family="Times,serif" font-size="14.00">AppModule</text>
</g>
<!-- AppComponent&#45;&gt;AppModule -->
<g id="edge1" class="edge">
<title>AppComponent&#45;&gt;AppModule</title>
<path fill="none" stroke="black" d="M727,-85.08C727,-106.12 727,-137.8 727,-137.8 727,-137.8 444.96,-137.8 444.96,-137.8"/>
<polygon fill="black" stroke="black" points="444.96,-134.3 434.96,-137.8 444.96,-141.3 444.96,-134.3"/>
</g>
<!-- HomeComponent -->
<g id="node2" class="node">
<title>HomeComponent</title>
<polygon fill="#ffffb3" stroke="black" points="656.55,-84.8 541.45,-84.8 541.45,-48.8 656.55,-48.8 656.55,-84.8"/>
<text text-anchor="middle" x="599" y="-62.6" font-family="Times,serif" font-size="14.00">HomeComponent</text>
</g>
<!-- HomeComponent&#45;&gt;AppModule -->
<g id="edge2" class="edge">
<title>HomeComponent&#45;&gt;AppModule</title>
<path fill="none" stroke="black" d="M599,-84.82C599,-102.17 599,-125.8 599,-125.8 599,-125.8 444.69,-125.8 444.69,-125.8"/>
<polygon fill="black" stroke="black" points="444.69,-122.3 434.69,-125.8 444.69,-129.3 444.69,-122.3"/>
</g>
<!-- MenuComponent -->
<g id="node3" class="node">
<title>MenuComponent</title>
<polygon fill="#ffffb3" stroke="black" points="522.99,-84.8 409.01,-84.8 409.01,-48.8 522.99,-48.8 522.99,-84.8"/>
<text text-anchor="middle" x="466" y="-62.6" font-family="Times,serif" font-size="14.00">MenuComponent</text>
</g>
<!-- MenuComponent&#45;&gt;AppModule -->
<g id="edge3" class="edge">
<title>MenuComponent&#45;&gt;AppModule</title>
<path fill="none" stroke="black" d="M421.92,-84.91C421.92,-84.91 421.92,-103.79 421.92,-103.79"/>
<polygon fill="black" stroke="black" points="418.42,-103.79 421.92,-113.79 425.42,-103.79 418.42,-103.79"/>
</g>
<!-- AppComponent  -->
<g id="node8" class="node">
<title>AppComponent </title>
<polygon fill="#80b1d3" stroke="black" points="447.44,-214.8 338.56,-214.8 338.56,-178.8 447.44,-178.8 447.44,-214.8"/>
<text text-anchor="middle" x="393" y="-192.6" font-family="Times,serif" font-size="14.00">AppComponent </text>
</g>
<!-- AppModule&#45;&gt;AppComponent  -->
<g id="edge7" class="edge">
<title>AppModule&#45;&gt;AppComponent </title>
<path fill="none" stroke="black" stroke-dasharray="1,5" d="M393,-149.91C393,-149.91 393,-168.79 393,-168.79"/>
<polygon fill="black" stroke="black" points="389.5,-168.79 393,-178.79 396.5,-168.79 389.5,-168.79"/>
</g>
<!-- AppRoutingModule -->
<g id="node5" class="node">
<title>AppRoutingModule</title>
<polygon fill="#8dd3c7" stroke="black" points="385.27,-84.8 382.27,-88.8 361.27,-88.8 358.27,-84.8 256.73,-84.8 256.73,-48.8 385.27,-48.8 385.27,-84.8"/>
<text text-anchor="middle" x="321" y="-62.6" font-family="Times,serif" font-size="14.00">AppRoutingModule</text>
</g>
<!-- AppRoutingModule&#45;&gt;AppModule -->
<g id="edge4" class="edge">
<title>AppRoutingModule&#45;&gt;AppModule</title>
<path fill="none" stroke="black" d="M368.28,-84.91C368.28,-84.91 368.28,-103.79 368.28,-103.79"/>
<polygon fill="black" stroke="black" points="364.78,-103.79 368.28,-113.79 371.78,-103.79 364.78,-103.79"/>
</g>
<!-- ArticleModule -->
<g id="node6" class="node">
<title>ArticleModule</title>
<polygon fill="#8dd3c7" stroke="black" points="238.42,-84.8 235.42,-88.8 214.42,-88.8 211.42,-84.8 139.58,-84.8 139.58,-48.8 238.42,-48.8 238.42,-84.8"/>
<text text-anchor="middle" x="189" y="-62.6" font-family="Times,serif" font-size="14.00">ArticleModule</text>
</g>
<!-- ArticleModule&#45;&gt;AppModule -->
<g id="edge5" class="edge">
<title>ArticleModule&#45;&gt;AppModule</title>
<path fill="none" stroke="black" d="M189,-84.82C189,-102.17 189,-125.8 189,-125.8 189,-125.8 341.23,-125.8 341.23,-125.8"/>
<polygon fill="black" stroke="black" points="341.23,-129.3 351.23,-125.8 341.23,-122.3 341.23,-129.3"/>
</g>
<!-- SharedModule -->
<g id="node7" class="node">
<title>SharedModule</title>
<polygon fill="#8dd3c7" stroke="black" points="122.42,-84.8 119.42,-88.8 98.42,-88.8 95.42,-84.8 23.58,-84.8 23.58,-48.8 122.42,-48.8 122.42,-84.8"/>
<text text-anchor="middle" x="73" y="-62.6" font-family="Times,serif" font-size="14.00">SharedModule</text>
</g>
<!-- SharedModule&#45;&gt;AppModule -->
<g id="edge6" class="edge">
<title>SharedModule&#45;&gt;AppModule</title>
<path fill="none" stroke="black" d="M73,-85.08C73,-106.12 73,-137.8 73,-137.8 73,-137.8 341.17,-137.8 341.17,-137.8"/>
<polygon fill="black" stroke="black" points="341.17,-141.3 351.17,-137.8 341.17,-134.3 341.17,-141.3"/>
</g>
</g>
</svg>
