<?xml version="1.0" encoding="UTF-8" standalone="no"?>
<!DOCTYPE svg PUBLIC "-//W3C//DTD SVG 1.1//EN"
 "http://www.w3.org/Graphics/SVG/1.1/DTD/svg11.dtd">
<!-- Generated by graphviz version 2.47.3 (20210619.1520)
 -->
<!-- Title: dependencies Pages: 1 -->
<svg width="3085pt" height="323pt"
 viewBox="0.00 0.00 3085.00 322.80" xmlns="http://www.w3.org/2000/svg" xmlns:xlink="http://www.w3.org/1999/xlink">
<g id="graph0" class="graph" transform="scale(1 1) rotate(0) translate(4 318.8)">
<title>dependencies</title>
<polygon fill="white" stroke="transparent" points="-4,4 -4,-318.8 3081,-318.8 3081,4 -4,4"/>
<text text-anchor="middle" x="1538.5" y="-8.2" font-family="sans-serif" font-size="14.00">dependencies</text>
<g id="clust1" class="cluster">
<title>cluster_AdminModule</title>
<polygon fill="none" stroke="black" stroke-dasharray="1,5" points="1749,-32.8 1749,-306.8 2041,-306.8 2041,-32.8 1749,-32.8"/>
</g>
<g id="clust3" class="cluster">
<title>cluster_AdminModule_imports</title>
<polygon fill="none" stroke="black" points="1757,-40.8 1757,-168.8 2033,-168.8 2033,-40.8 1757,-40.8"/>
</g>
<g id="clust4" class="cluster">
<title>cluster_AdminModule_exports</title>
<polygon fill="none" stroke="black" points="1780,-246.8 1780,-298.8 2026,-298.8 2026,-246.8 1780,-246.8"/>
</g>
<g id="clust13" class="cluster">
<title>cluster_AppModule</title>
<polygon fill="none" stroke="black" stroke-dasharray="1,5" points="2397,-108.8 2397,-306.8 3069,-306.8 3069,-108.8 2397,-108.8"/>
</g>
<g id="clust14" class="cluster">
<title>cluster_AppModule_declarations</title>
<polygon fill="none" stroke="black" points="2674,-116.8 2674,-168.8 3061,-168.8 3061,-116.8 2674,-116.8"/>
</g>
<g id="clust18" class="cluster">
<title>cluster_AppModule_imports</title>
<polygon fill="none" stroke="black" points="2405,-116.8 2405,-168.8 2666,-168.8 2666,-116.8 2405,-116.8"/>
</g>
<g id="clust20" class="cluster">
<title>cluster_AppModule_bootstrap</title>
<polygon fill="none" stroke="black" points="2604,-246.8 2604,-298.8 2728,-298.8 2728,-246.8 2604,-246.8"/>
</g>
<g id="clust28" class="cluster">
<title>cluster_ArticleModule</title>
<polygon fill="none" stroke="black" stroke-dasharray="1,5" points="2050,-32.8 2050,-100.8 2856,-100.8 2856,-32.8 2050,-32.8"/>
</g>
<g id="clust29" class="cluster">
<title>cluster_ArticleModule_declarations</title>
<polygon fill="none" stroke="black" points="2540,-40.8 2540,-92.8 2848,-92.8 2848,-40.8 2540,-40.8"/>
</g>
<g id="clust33" class="cluster">
<title>cluster_ArticleModule_exports</title>
<polygon fill="none" stroke="black" points="2216,-40.8 2216,-92.8 2532,-92.8 2532,-40.8 2216,-40.8"/>
</g>
<g id="clust35" class="cluster">
<title>cluster_ArticleModule_providers</title>
<polygon fill="none" stroke="black" points="2058,-40.8 2058,-92.8 2208,-92.8 2208,-40.8 2058,-40.8"/>
</g>
<g id="clust36" class="cluster">
<title>cluster_CategoryModule</title>
<polygon fill="none" stroke="black" stroke-dasharray="1,5" points="8,-32.8 8,-100.8 915,-100.8 915,-32.8 8,-32.8"/>
</g>
<g id="clust37" class="cluster">
<title>cluster_CategoryModule_declarations</title>
<polygon fill="none" stroke="black" points="556,-40.8 556,-92.8 907,-92.8 907,-40.8 556,-40.8"/>
</g>
<g id="clust41" class="cluster">
<title>cluster_CategoryModule_exports</title>
<polygon fill="none" stroke="black" points="190,-40.8 190,-92.8 548,-92.8 548,-40.8 190,-40.8"/>
</g>
<g id="clust43" class="cluster">
<title>cluster_CategoryModule_providers</title>
<polygon fill="none" stroke="black" points="16,-40.8 16,-92.8 182,-92.8 182,-40.8 16,-40.8"/>
</g>
<g id="clust44" class="cluster">
<title>cluster_SharedModule</title>
<polygon fill="none" stroke="black" stroke-dasharray="1,5" points="2073,-108.8 2073,-176.8 2389,-176.8 2389,-108.8 2073,-108.8"/>
</g>
<g id="clust45" class="cluster">
<title>cluster_SharedModule_declarations</title>
<polygon fill="none" stroke="black" points="2237,-116.8 2237,-168.8 2381,-168.8 2381,-116.8 2237,-116.8"/>
</g>
<g id="clust48" class="cluster">
<title>cluster_SharedModule_exports</title>
<polygon fill="none" stroke="black" points="2081,-116.8 2081,-168.8 2229,-168.8 2229,-116.8 2081,-116.8"/>
</g>
<g id="clust51" class="cluster">
<title>cluster_StatusModule</title>
<polygon fill="none" stroke="black" stroke-dasharray="1,5" points="923,-32.8 923,-100.8 1741,-100.8 1741,-32.8 923,-32.8"/>
</g>
<g id="clust52" class="cluster">
<title>cluster_StatusModule_declarations</title>
<polygon fill="none" stroke="black" points="1415,-40.8 1415,-92.8 1733,-92.8 1733,-40.8 1415,-40.8"/>
</g>
<g id="clust56" class="cluster">
<title>cluster_StatusModule_exports</title>
<polygon fill="none" stroke="black" points="1083,-40.8 1083,-92.8 1407,-92.8 1407,-40.8 1083,-40.8"/>
</g>
<g id="clust58" class="cluster">
<title>cluster_StatusModule_providers</title>
<polygon fill="none" stroke="black" points="931,-40.8 931,-92.8 1075,-92.8 1075,-40.8 931,-40.8"/>
</g>
<!-- AdminRoutingModule -->
<g id="node1" class="node">
<title>AdminRoutingModule</title>
<polygon fill="#8dd3c7" stroke="black" points="1908.56,-84.8 1905.56,-88.8 1884.56,-88.8 1881.56,-84.8 1765.44,-84.8 1765.44,-48.8 1908.56,-48.8 1908.56,-84.8"/>
<text text-anchor="middle" x="1837" y="-62.6" font-family="Times,serif" font-size="14.00">AdminRoutingModule</text>
</g>
<!-- AdminModule -->
<g id="node5" class="node">
<title>AdminModule</title>
<polygon fill="#8dd3c7" stroke="black" points="2003.44,-225.8 2000.44,-229.8 1979.44,-229.8 1976.44,-225.8 1904.56,-225.8 1904.56,-189.8 2003.44,-189.8 2003.44,-225.8"/>
<text text-anchor="middle" x="1954" y="-203.6" font-family="Times,serif" font-size="14.00">AdminModule</text>
</g>
<!-- AdminRoutingModule&#45;&gt;AdminModule -->
<g id="edge1" class="edge">
<title>AdminRoutingModule&#45;&gt;AdminModule</title>
<path fill="none" stroke="black" d="M1889.38,-84.88C1889.38,-121.03 1889.38,-198.8 1889.38,-198.8 1889.38,-198.8 1894.69,-198.8 1894.69,-198.8"/>
<polygon fill="black" stroke="black" points="1894.69,-202.3 1904.69,-198.8 1894.69,-195.3 1894.69,-202.3"/>
</g>
<!-- CategoryModule -->
<g id="node2" class="node">
<title>CategoryModule</title>
<polygon fill="#8dd3c7" stroke="black" points="1875.37,-160.8 1872.37,-164.8 1851.37,-164.8 1848.37,-160.8 1764.63,-160.8 1764.63,-124.8 1875.37,-124.8 1875.37,-160.8"/>
<text text-anchor="middle" x="1820" y="-138.6" font-family="Times,serif" font-size="14.00">CategoryModule</text>
</g>
<!-- CategoryModule&#45;&gt;AdminModule -->
<g id="edge2" class="edge">
<title>CategoryModule&#45;&gt;AdminModule</title>
<path fill="none" stroke="black" d="M1831.9,-160.91C1831.9,-180.14 1831.9,-207.8 1831.9,-207.8 1831.9,-207.8 1894.69,-207.8 1894.69,-207.8"/>
<polygon fill="black" stroke="black" points="1894.69,-211.3 1904.69,-207.8 1894.69,-204.3 1894.69,-211.3"/>
</g>
<!-- CategoryFormComponent  -->
<g id="node22" class="node">
<title>CategoryFormComponent </title>
<polygon fill="#fb8072" stroke="black" points="540.48,-84.8 373.52,-84.8 373.52,-48.8 540.48,-48.8 540.48,-84.8"/>
<text text-anchor="middle" x="457" y="-62.6" font-family="Times,serif" font-size="14.00">CategoryFormComponent </text>
</g>
<!-- CategoryModule&#45;&gt;CategoryFormComponent  -->
<g id="edge23" class="edge">
<title>CategoryModule&#45;&gt;CategoryFormComponent </title>
<path fill="none" stroke="black" stroke-dasharray="5,2" d="M1764.45,-142.8C1508.72,-142.8 457,-142.8 457,-142.8 457,-142.8 457,-94.81 457,-94.81"/>
<polygon fill="black" stroke="black" points="460.5,-94.81 457,-84.81 453.5,-94.81 460.5,-94.81"/>
</g>
<!-- CategoryListComponent  -->
<g id="node23" class="node">
<title>CategoryListComponent </title>
<polygon fill="#fb8072" stroke="black" points="355.93,-84.8 198.07,-84.8 198.07,-48.8 355.93,-48.8 355.93,-84.8"/>
<text text-anchor="middle" x="277" y="-62.6" font-family="Times,serif" font-size="14.00">CategoryListComponent </text>
</g>
<!-- CategoryModule&#45;&gt;CategoryListComponent  -->
<g id="edge24" class="edge">
<title>CategoryModule&#45;&gt;CategoryListComponent </title>
<path fill="none" stroke="black" stroke-dasharray="5,2" d="M1764.63,-148.8C1488.88,-148.8 277,-148.8 277,-148.8 277,-148.8 277,-95 277,-95"/>
<polygon fill="black" stroke="black" points="280.5,-95 277,-85 273.5,-95 280.5,-95"/>
</g>
<!-- SharedModule -->
<g id="node3" class="node">
<title>SharedModule</title>
<polygon fill="#8dd3c7" stroke="black" points="2025.42,-84.8 2022.42,-88.8 2001.42,-88.8 1998.42,-84.8 1926.58,-84.8 1926.58,-48.8 2025.42,-48.8 2025.42,-84.8"/>
<text text-anchor="middle" x="1976" y="-62.6" font-family="Times,serif" font-size="14.00">SharedModule</text>
</g>
<!-- SharedModule&#45;&gt;CategoryModule -->
<g id="edge22" class="edge">
<title>SharedModule&#45;&gt;CategoryModule</title>
<path fill="none" stroke="black" d="M1946.82,-84.81C1946.82,-100.85 1946.82,-121.8 1946.82,-121.8 1946.82,-121.8 1820.33,-121.8 1820.33,-121.8 1820.33,-121.8 1820.33,-122.09 1820.33,-122.09"/>
<polygon fill="black" stroke="black" points="1816.83,-114.72 1820.33,-124.72 1823.83,-114.72 1816.83,-114.72"/>
</g>
<!-- StatusModule -->
<g id="node4" class="node">
<title>StatusModule</title>
<polygon fill="#8dd3c7" stroke="black" points="1986.77,-160.8 1983.77,-164.8 1962.77,-164.8 1959.77,-160.8 1893.23,-160.8 1893.23,-124.8 1986.77,-124.8 1986.77,-160.8"/>
<text text-anchor="middle" x="1940" y="-138.6" font-family="Times,serif" font-size="14.00">StatusModule</text>
</g>
<!-- SharedModule&#45;&gt;StatusModule -->
<g id="edge30" class="edge">
<title>SharedModule&#45;&gt;StatusModule</title>
<path fill="none" stroke="black" d="M1966.85,-84.81C1966.85,-84.81 1966.85,-114.65 1966.85,-114.65"/>
<polygon fill="black" stroke="black" points="1963.35,-114.65 1966.85,-124.65 1970.35,-114.65 1963.35,-114.65"/>
</g>
<!-- SharedModule&#45;&gt;AdminModule -->
<g id="edge3" class="edge">
<title>SharedModule&#45;&gt;AdminModule</title>
<path fill="none" stroke="black" d="M1995.05,-84.94C1995.05,-84.94 1995.05,-179.73 1995.05,-179.73"/>
<polygon fill="black" stroke="black" points="1991.55,-179.72 1995.05,-189.73 1998.55,-179.73 1991.55,-179.72"/>
</g>
<!-- AppModule -->
<g id="node11" class="node">
<title>AppModule</title>
<polygon fill="#8dd3c7" stroke="black" points="2707.66,-225.8 2704.66,-229.8 2683.66,-229.8 2680.66,-225.8 2624.34,-225.8 2624.34,-189.8 2707.66,-189.8 2707.66,-225.8"/>
<text text-anchor="middle" x="2666" y="-203.6" font-family="Times,serif" font-size="14.00">AppModule</text>
</g>
<!-- SharedModule&#45;&gt;AppModule -->
<g id="edge12" class="edge">
<title>SharedModule&#45;&gt;AppModule</title>
<path fill="none" stroke="black" d="M2019.59,-84.83C2019.59,-124.08 2019.59,-213.8 2019.59,-213.8 2019.59,-213.8 2614.09,-213.8 2614.09,-213.8"/>
<polygon fill="black" stroke="black" points="2614.09,-217.3 2624.09,-213.8 2614.09,-210.3 2614.09,-217.3"/>
</g>
<!-- ArticleModule -->
<g id="node13" class="node">
<title>ArticleModule</title>
<polygon fill="#8dd3c7" stroke="black" points="2511.42,-160.8 2508.42,-164.8 2487.42,-164.8 2484.42,-160.8 2412.58,-160.8 2412.58,-124.8 2511.42,-124.8 2511.42,-160.8"/>
<text text-anchor="middle" x="2462" y="-138.6" font-family="Times,serif" font-size="14.00">ArticleModule</text>
</g>
<!-- SharedModule&#45;&gt;ArticleModule -->
<g id="edge16" class="edge">
<title>SharedModule&#45;&gt;ArticleModule</title>
<path fill="none" stroke="black" d="M2020.99,-84.97C2020.99,-88.85 2020.99,-91.8 2020.99,-91.8 2020.99,-91.8 2429.19,-91.8 2429.19,-91.8 2429.19,-91.8 2429.19,-114.68 2429.19,-114.68"/>
<polygon fill="black" stroke="black" points="2425.69,-114.68 2429.19,-124.68 2432.69,-114.68 2425.69,-114.68"/>
</g>
<!-- ShortenContentPipe  -->
<g id="node26" class="node">
<title>ShortenContentPipe </title>
<polygon fill="#fb8072" stroke="black" points="2221.27,-160.8 2088.73,-160.8 2088.73,-124.8 2221.27,-124.8 2221.27,-160.8"/>
<text text-anchor="middle" x="2155" y="-138.6" font-family="Times,serif" font-size="14.00">ShortenContentPipe </text>
</g>
<!-- SharedModule&#45;&gt;ShortenContentPipe  -->
<g id="edge27" class="edge">
<title>SharedModule&#45;&gt;ShortenContentPipe </title>
<path fill="none" stroke="black" stroke-dasharray="5,2" d="M2023.81,-84.81C2023.81,-107.29 2023.81,-142.8 2023.81,-142.8 2023.81,-142.8 2078.63,-142.8 2078.63,-142.8"/>
<polygon fill="black" stroke="black" points="2078.63,-146.3 2088.63,-142.8 2078.63,-139.3 2078.63,-146.3"/>
</g>
<!-- StatusModule&#45;&gt;AdminModule -->
<g id="edge4" class="edge">
<title>StatusModule&#45;&gt;AdminModule</title>
<path fill="none" stroke="black" d="M1945.83,-160.91C1945.83,-160.91 1945.83,-179.79 1945.83,-179.79"/>
<polygon fill="black" stroke="black" points="1942.33,-179.79 1945.83,-189.79 1949.33,-179.79 1942.33,-179.79"/>
</g>
<!-- StatusFormComponent  -->
<g id="node29" class="node">
<title>StatusFormComponent </title>
<polygon fill="#fb8072" stroke="black" points="1398.89,-84.8 1249.11,-84.8 1249.11,-48.8 1398.89,-48.8 1398.89,-84.8"/>
<text text-anchor="middle" x="1324" y="-62.6" font-family="Times,serif" font-size="14.00">StatusFormComponent </text>
</g>
<!-- StatusModule&#45;&gt;StatusFormComponent  -->
<g id="edge31" class="edge">
<title>StatusModule&#45;&gt;StatusFormComponent </title>
<path fill="none" stroke="black" stroke-dasharray="5,2" d="M1900.95,-124.69C1900.95,-114.9 1900.95,-104.8 1900.95,-104.8 1900.95,-104.8 1324,-104.8 1324,-104.8 1324,-104.8 1324,-94.91 1324,-94.91"/>
<polygon fill="black" stroke="black" points="1327.5,-94.91 1324,-84.91 1320.5,-94.91 1327.5,-94.91"/>
</g>
<!-- StatusListComponent  -->
<g id="node30" class="node">
<title>StatusListComponent </title>
<polygon fill="#fb8072" stroke="black" points="1231.33,-84.8 1090.67,-84.8 1090.67,-48.8 1231.33,-48.8 1231.33,-84.8"/>
<text text-anchor="middle" x="1161" y="-62.6" font-family="Times,serif" font-size="14.00">StatusListComponent </text>
</g>
<!-- StatusModule&#45;&gt;StatusListComponent  -->
<g id="edge32" class="edge">
<title>StatusModule&#45;&gt;StatusListComponent </title>
<path fill="none" stroke="black" stroke-dasharray="5,2" d="M1898.33,-124.61C1898.33,-116.52 1898.33,-108.8 1898.33,-108.8 1898.33,-108.8 1161,-108.8 1161,-108.8 1161,-108.8 1161,-94.86 1161,-94.86"/>
<polygon fill="black" stroke="black" points="1164.5,-94.86 1161,-84.86 1157.5,-94.86 1164.5,-94.86"/>
</g>
<!-- CategoryModule  -->
<g id="node6" class="node">
<title>CategoryModule </title>
<polygon fill="#fb8072" stroke="black" points="2018.37,-290.8 1903.63,-290.8 1903.63,-254.8 2018.37,-254.8 2018.37,-290.8"/>
<text text-anchor="middle" x="1961" y="-268.6" font-family="Times,serif" font-size="14.00">CategoryModule </text>
</g>
<!-- AdminModule&#45;&gt;CategoryModule  -->
<g id="edge5" class="edge">
<title>AdminModule&#45;&gt;CategoryModule </title>
<path fill="none" stroke="black" stroke-dasharray="5,2" d="M1954,-225.91C1954,-225.91 1954,-244.79 1954,-244.79"/>
<polygon fill="black" stroke="black" points="1950.5,-244.79 1954,-254.79 1957.5,-244.79 1950.5,-244.79"/>
</g>
<!-- StatusModule  -->
<g id="node7" class="node">
<title>StatusModule </title>
<polygon fill="#fb8072" stroke="black" points="1885.77,-290.8 1788.23,-290.8 1788.23,-254.8 1885.77,-254.8 1885.77,-290.8"/>
<text text-anchor="middle" x="1837" y="-268.6" font-family="Times,serif" font-size="14.00">StatusModule </text>
</g>
<!-- AdminModule&#45;&gt;StatusModule  -->
<g id="edge6" class="edge">
<title>AdminModule&#45;&gt;StatusModule </title>
<path fill="none" stroke="black" stroke-dasharray="5,2" d="M1904.59,-216.8C1891.3,-216.8 1880.53,-216.8 1880.53,-216.8 1880.53,-216.8 1880.53,-244.77 1880.53,-244.77"/>
<polygon fill="black" stroke="black" points="1877.03,-244.77 1880.53,-254.77 1884.03,-244.77 1877.03,-244.77"/>
</g>
<!-- AppComponent -->
<g id="node8" class="node">
<title>AppComponent</title>
<polygon fill="#ffffb3" stroke="black" points="3052.94,-160.8 2947.06,-160.8 2947.06,-124.8 3052.94,-124.8 3052.94,-160.8"/>
<text text-anchor="middle" x="3000" y="-138.6" font-family="Times,serif" font-size="14.00">AppComponent</text>
</g>
<!-- AppComponent&#45;&gt;AppModule -->
<g id="edge7" class="edge">
<title>AppComponent&#45;&gt;AppModule</title>
<path fill="none" stroke="black" d="M3000,-161.08C3000,-182.12 3000,-213.8 3000,-213.8 3000,-213.8 2717.96,-213.8 2717.96,-213.8"/>
<polygon fill="black" stroke="black" points="2717.96,-210.3 2707.96,-213.8 2717.96,-217.3 2717.96,-210.3"/>
</g>
<!-- HomeComponent -->
<g id="node9" class="node">
<title>HomeComponent</title>
<polygon fill="#ffffb3" stroke="black" points="2929.55,-160.8 2814.45,-160.8 2814.45,-124.8 2929.55,-124.8 2929.55,-160.8"/>
<text text-anchor="middle" x="2872" y="-138.6" font-family="Times,serif" font-size="14.00">HomeComponent</text>
</g>
<!-- HomeComponent&#45;&gt;AppModule -->
<g id="edge8" class="edge">
<title>HomeComponent&#45;&gt;AppModule</title>
<path fill="none" stroke="black" d="M2872,-160.82C2872,-178.17 2872,-201.8 2872,-201.8 2872,-201.8 2717.69,-201.8 2717.69,-201.8"/>
<polygon fill="black" stroke="black" points="2717.69,-198.3 2707.69,-201.8 2717.69,-205.3 2717.69,-198.3"/>
</g>
<!-- MenuComponent -->
<g id="node10" class="node">
<title>MenuComponent</title>
<polygon fill="#ffffb3" stroke="black" points="2795.99,-160.8 2682.01,-160.8 2682.01,-124.8 2795.99,-124.8 2795.99,-160.8"/>
<text text-anchor="middle" x="2739" y="-138.6" font-family="Times,serif" font-size="14.00">MenuComponent</text>
</g>
<!-- MenuComponent&#45;&gt;AppModule -->
<g id="edge9" class="edge">
<title>MenuComponent&#45;&gt;AppModule</title>
<path fill="none" stroke="black" d="M2694.92,-160.91C2694.92,-160.91 2694.92,-179.79 2694.92,-179.79"/>
<polygon fill="black" stroke="black" points="2691.42,-179.79 2694.92,-189.79 2698.42,-179.79 2691.42,-179.79"/>
</g>
<!-- AppComponent  -->
<g id="node14" class="node">
<title>AppComponent </title>
<polygon fill="#80b1d3" stroke="black" points="2720.44,-290.8 2611.56,-290.8 2611.56,-254.8 2720.44,-254.8 2720.44,-290.8"/>
<text text-anchor="middle" x="2666" y="-268.6" font-family="Times,serif" font-size="14.00">AppComponent </text>
</g>
<!-- AppModule&#45;&gt;AppComponent  -->
<g id="edge13" class="edge">
<title>AppModule&#45;&gt;AppComponent </title>
<path fill="none" stroke="black" stroke-dasharray="1,5" d="M2666,-225.91C2666,-225.91 2666,-244.79 2666,-244.79"/>
<polygon fill="black" stroke="black" points="2662.5,-244.79 2666,-254.79 2669.5,-244.79 2662.5,-244.79"/>
</g>
<!-- AppRoutingModule -->
<g id="node12" class="node">
<title>AppRoutingModule</title>
<polygon fill="#8dd3c7" stroke="black" points="2658.27,-160.8 2655.27,-164.8 2634.27,-164.8 2631.27,-160.8 2529.73,-160.8 2529.73,-124.8 2658.27,-124.8 2658.27,-160.8"/>
<text text-anchor="middle" x="2594" y="-138.6" font-family="Times,serif" font-size="14.00">AppRoutingModule</text>
</g>
<!-- AppRoutingModule&#45;&gt;AppModule -->
<g id="edge10" class="edge">
<title>AppRoutingModule&#45;&gt;AppModule</title>
<path fill="none" stroke="black" d="M2641.28,-160.91C2641.28,-160.91 2641.28,-179.79 2641.28,-179.79"/>
<polygon fill="black" stroke="black" points="2637.78,-179.79 2641.28,-189.79 2644.78,-179.79 2637.78,-179.79"/>
</g>
<!-- ArticleModule&#45;&gt;AppModule -->
<g id="edge11" class="edge">
<title>ArticleModule&#45;&gt;AppModule</title>
<path fill="none" stroke="black" d="M2462,-160.82C2462,-178.17 2462,-201.8 2462,-201.8 2462,-201.8 2614.23,-201.8 2614.23,-201.8"/>
<polygon fill="black" stroke="black" points="2614.23,-205.3 2624.23,-201.8 2614.23,-198.3 2614.23,-205.3"/>
</g>
<!-- ArticleComponent  -->
<g id="node17" class="node">
<title>ArticleComponent </title>
<polygon fill="#fb8072" stroke="black" points="2523.7,-84.8 2400.3,-84.8 2400.3,-48.8 2523.7,-48.8 2523.7,-84.8"/>
<text text-anchor="middle" x="2462" y="-62.6" font-family="Times,serif" font-size="14.00">ArticleComponent </text>
</g>
<!-- ArticleModule&#45;&gt;ArticleComponent  -->
<g id="edge17" class="edge">
<title>ArticleModule&#45;&gt;ArticleComponent </title>
<path fill="none" stroke="black" stroke-dasharray="5,2" d="M2462,-124.79C2462,-124.79 2462,-94.95 2462,-94.95"/>
<polygon fill="black" stroke="black" points="2465.5,-94.95 2462,-84.95 2458.5,-94.95 2465.5,-94.95"/>
</g>
<!-- ArticleDetailComponent  -->
<g id="node18" class="node">
<title>ArticleDetailComponent </title>
<polygon fill="#fb8072" stroke="black" points="2381.91,-84.8 2224.09,-84.8 2224.09,-48.8 2381.91,-48.8 2381.91,-84.8"/>
<text text-anchor="middle" x="2303" y="-62.6" font-family="Times,serif" font-size="14.00">ArticleDetailComponent </text>
</g>
<!-- ArticleModule&#45;&gt;ArticleDetailComponent  -->
<g id="edge18" class="edge">
<title>ArticleModule&#45;&gt;ArticleDetailComponent </title>
<path fill="none" stroke="black" stroke-dasharray="5,2" d="M2412.46,-142.8C2394.1,-142.8 2377.67,-142.8 2377.67,-142.8 2377.67,-142.8 2377.67,-94.81 2377.67,-94.81"/>
<polygon fill="black" stroke="black" points="2381.17,-94.81 2377.67,-84.81 2374.17,-94.81 2381.17,-94.81"/>
</g>
<!-- ArticleComponent -->
<g id="node15" class="node">
<title>ArticleComponent</title>
<polygon fill="#ffffb3" stroke="black" points="2840.2,-84.8 2719.8,-84.8 2719.8,-48.8 2840.2,-48.8 2840.2,-84.8"/>
<text text-anchor="middle" x="2780" y="-62.6" font-family="Times,serif" font-size="14.00">ArticleComponent</text>
</g>
<!-- ArticleComponent&#45;&gt;ArticleModule -->
<g id="edge14" class="edge">
<title>ArticleComponent&#45;&gt;ArticleModule</title>
<path fill="none" stroke="black" d="M2757.95,-84.99C2757.95,-99.98 2757.95,-118.8 2757.95,-118.8 2757.95,-118.8 2494.81,-118.8 2494.81,-118.8 2494.81,-118.8 2494.81,-119.38 2494.81,-119.38"/>
<polygon fill="black" stroke="black" points="2491.31,-114.61 2494.81,-124.61 2498.31,-114.61 2491.31,-114.61"/>
</g>
<!-- ArticleDetailComponent -->
<g id="node16" class="node">
<title>ArticleDetailComponent</title>
<polygon fill="#ffffb3" stroke="black" points="2702.41,-84.8 2547.59,-84.8 2547.59,-48.8 2702.41,-48.8 2702.41,-84.8"/>
<text text-anchor="middle" x="2625" y="-62.6" font-family="Times,serif" font-size="14.00">ArticleDetailComponent</text>
</g>
<!-- ArticleDetailComponent&#45;&gt;ArticleModule -->
<g id="edge15" class="edge">
<title>ArticleDetailComponent&#45;&gt;ArticleModule</title>
<path fill="none" stroke="black" d="M2603.09,-84.95C2603.09,-98.54 2603.09,-114.8 2603.09,-114.8 2603.09,-114.8 2478.4,-114.8 2478.4,-114.8 2478.4,-114.8 2478.4,-115.78 2478.4,-115.78"/>
<polygon fill="black" stroke="black" points="2474.9,-114.59 2478.4,-124.59 2481.9,-114.59 2474.9,-114.59"/>
</g>
<!-- ArticleService -->
<g id="node19" class="node">
<title>ArticleService</title>
<ellipse fill="#fdb462" stroke="black" cx="2133" cy="-66.8" rx="66.61" ry="18"/>
<text text-anchor="middle" x="2133" y="-62.6" font-family="Times,serif" font-size="14.00">ArticleService</text>
</g>
<!-- ArticleService&#45;&gt;ArticleModule -->
<g id="edge19" class="edge">
<title>ArticleService&#45;&gt;ArticleModule</title>
<path fill="none" stroke="black" d="M2144.33,-84.56C2144.33,-87.06 2144.33,-88.8 2144.33,-88.8 2144.33,-88.8 2445.6,-88.8 2445.6,-88.8 2445.6,-88.8 2445.6,-114.52 2445.6,-114.52"/>
<polygon fill="black" stroke="black" points="2442.1,-114.52 2445.6,-124.52 2449.1,-114.52 2442.1,-114.52"/>
</g>
<!-- CategoryFormComponent -->
<g id="node20" class="node">
<title>CategoryFormComponent</title>
<polygon fill="#ffffb3" stroke="black" points="899.48,-84.8 736.52,-84.8 736.52,-48.8 899.48,-48.8 899.48,-84.8"/>
<text text-anchor="middle" x="818" y="-62.6" font-family="Times,serif" font-size="14.00">CategoryFormComponent</text>
</g>
<!-- CategoryFormComponent&#45;&gt;CategoryModule -->
<g id="edge20" class="edge">
<title>CategoryFormComponent&#45;&gt;CategoryModule</title>
<path fill="none" stroke="black" d="M818,-84.97C818,-103.89 818,-130.8 818,-130.8 818,-130.8 1754.34,-130.8 1754.34,-130.8"/>
<polygon fill="black" stroke="black" points="1754.34,-134.3 1764.34,-130.8 1754.34,-127.3 1754.34,-134.3"/>
</g>
<!-- CategoryListComponent -->
<g id="node21" class="node">
<title>CategoryListComponent</title>
<polygon fill="#ffffb3" stroke="black" points="718.43,-84.8 563.57,-84.8 563.57,-48.8 718.43,-48.8 718.43,-84.8"/>
<text text-anchor="middle" x="641" y="-62.6" font-family="Times,serif" font-size="14.00">CategoryListComponent</text>
</g>
<!-- CategoryListComponent&#45;&gt;CategoryModule -->
<g id="edge21" class="edge">
<title>CategoryListComponent&#45;&gt;CategoryModule</title>
<path fill="none" stroke="black" d="M641,-84.83C641,-105.57 641,-136.8 641,-136.8 641,-136.8 1754.32,-136.8 1754.32,-136.8"/>
<polygon fill="black" stroke="black" points="1754.32,-140.3 1764.32,-136.8 1754.32,-133.3 1754.32,-140.3"/>
</g>
<!-- CategoryService -->
<g id="node24" class="node">
<title>CategoryService</title>
<ellipse fill="#fdb462" stroke="black" cx="99" cy="-66.8" rx="75.28" ry="18"/>
<text text-anchor="middle" x="99" y="-62.6" font-family="Times,serif" font-size="14.00">CategoryService</text>
</g>
<!-- CategoryService&#45;&gt;CategoryModule -->
<g id="edge25" class="edge">
<title>CategoryService&#45;&gt;CategoryModule</title>
<path fill="none" stroke="black" d="M99,-85.03C99,-110.81 99,-154.8 99,-154.8 99,-154.8 1754.2,-154.8 1754.2,-154.8"/>
<polygon fill="black" stroke="black" points="1754.2,-158.3 1764.2,-154.8 1754.2,-151.3 1754.2,-158.3"/>
</g>
<!-- ShortenContentPipe -->
<g id="node25" class="node">
<title>ShortenContentPipe</title>
<polygon fill="#ffffb3" stroke="black" points="2373.27,-160.8 2244.73,-160.8 2244.73,-124.8 2373.27,-124.8 2373.27,-160.8"/>
<text text-anchor="middle" x="2309" y="-138.6" font-family="Times,serif" font-size="14.00">ShortenContentPipe</text>
</g>
<!-- ShortenContentPipe&#45;&gt;SharedModule -->
<g id="edge26" class="edge">
<title>ShortenContentPipe&#45;&gt;SharedModule</title>
<path fill="none" stroke="black" d="M2309,-124.65C2309,-111.06 2309,-94.8 2309,-94.8 2309,-94.8 2022.4,-94.8 2022.4,-94.8 2022.4,-94.8 2022.4,-93.82 2022.4,-93.82"/>
<polygon fill="black" stroke="black" points="2025.9,-95.01 2022.4,-85.01 2018.9,-95.01 2025.9,-95.01"/>
</g>
<!-- StatusFormComponent -->
<g id="node27" class="node">
<title>StatusFormComponent</title>
<polygon fill="#ffffb3" stroke="black" points="1724.89,-84.8 1579.11,-84.8 1579.11,-48.8 1724.89,-48.8 1724.89,-84.8"/>
<text text-anchor="middle" x="1652" y="-62.6" font-family="Times,serif" font-size="14.00">StatusFormComponent</text>
</g>
<!-- StatusFormComponent&#45;&gt;StatusModule -->
<g id="edge28" class="edge">
<title>StatusFormComponent&#45;&gt;StatusModule</title>
<path fill="none" stroke="black" d="M1652,-85.04C1652,-92.23 1652,-98.8 1652,-98.8 1652,-98.8 1906.17,-98.8 1906.17,-98.8 1906.17,-98.8 1906.17,-114.65 1906.17,-114.65"/>
<polygon fill="black" stroke="black" points="1902.67,-114.65 1906.17,-124.65 1909.67,-114.65 1902.67,-114.65"/>
</g>
<!-- StatusListComponent -->
<g id="node28" class="node">
<title>StatusListComponent</title>
<polygon fill="#ffffb3" stroke="black" points="1560.83,-84.8 1423.17,-84.8 1423.17,-48.8 1560.83,-48.8 1560.83,-84.8"/>
<text text-anchor="middle" x="1492" y="-62.6" font-family="Times,serif" font-size="14.00">StatusListComponent</text>
</g>
<!-- StatusListComponent&#45;&gt;StatusModule -->
<g id="edge29" class="edge">
<title>StatusListComponent&#45;&gt;StatusModule</title>
<path fill="none" stroke="black" d="M1492,-85.12C1492,-93.59 1492,-101.8 1492,-101.8 1492,-101.8 1903.56,-101.8 1903.56,-101.8 1903.56,-101.8 1903.56,-114.7 1903.56,-114.7"/>
<polygon fill="black" stroke="black" points="1900.06,-114.7 1903.56,-124.7 1907.06,-114.7 1900.06,-114.7"/>
</g>
<!-- StatusService -->
<g id="node31" class="node">
<title>StatusService</title>
<ellipse fill="#fdb462" stroke="black" cx="1003" cy="-66.8" rx="63.7" ry="18"/>
<text text-anchor="middle" x="1003" y="-62.6" font-family="Times,serif" font-size="14.00">StatusService</text>
</g>
<!-- StatusService&#45;&gt;StatusModule -->
<g id="edge33" class="edge">
<title>StatusService&#45;&gt;StatusModule</title>
<path fill="none" stroke="black" d="M1003,-84.84C1003,-97.36 1003,-111.8 1003,-111.8 1003,-111.8 1895.72,-111.8 1895.72,-111.8 1895.72,-111.8 1895.72,-114.77 1895.72,-114.77"/>
<polygon fill="black" stroke="black" points="1892.22,-114.77 1895.72,-124.77 1899.22,-114.77 1892.22,-114.77"/>
</g>
</g>
</svg>
